<?xml version="1.0" encoding="UTF-8" standalone="no"?><svg xmlns="http://www.w3.org/2000/svg" xmlns:xlink="http://www.w3.org/1999/xlink" contentScriptType="text/ecmascript" zoomAndPan="magnify" contentStyleType="text/css" version="1" width="1024" data-export-recolorable-svg="true" fill="#000000" preserveAspectRatio="xMidYMid meet" viewBox="-41.171 -39.945 1105.579 1103.172" height="1024" class="colorable-icon reset-top-left-margin" overflow="visible"><g fill="none" stroke-width="45" stroke-linejoin="round" stroke-linecap="round" stroke="#ffffff"><path data-line="nan" d="M 999.985,363.593 C 1008.215,396.21 1013.821,424.925 1017.58,452.939 C 1019.713,481.634 1019.83,525.808 1018.699,550.295 Q 1015.559,581.686 1010.697,611.155"/><path data-line="nan" d="M 673.891,992.571 C 634.539,1003.962 592.739,1012.653 553.486,1017.507 C 514.935,1019.216 475.7,1017.924 434.466,1013.196 Q 395.456,1005.576 359.368,995.63"/><path data-line="nan" d="M 439.468,10.345 C 464.886,7.358 494.384,5.141 536.489,5.055 Q 575.54,8.569 632.487,18.055"/><path data-line="1" d="M 999.9727280212092,363.56580128350504 A 273.3287493090346,273.3287493090346 0 0,1 631.8712650065598,17.822371796276542"/><path data-line="6" d="M 381.1916098392136,265.3696874606029 A 70.85445526755976,70.85445526755976 0 1,0 398.8716832656336,368.88022159804973"/><path data-line="7" d="M 381.257,265.267 Q 386.2124999946699,268.3950000008995 390.998,272.715"/><path data-line="8" d="M 390.99799997512224,272.7150000272173 A 75.98888829434992,75.98888829434992 0 0,1 399.66799997119773,282.0940000224458"/><path data-line="9" d="M 399.77122011878765,282.0157784698666 A 71.27051478564519,71.27051478564519 0 0,1 399.06082639898835,369.02908255239265"/><circle r="56.798" cx="629.55" data-line="12" cy="609.449"/><path data-line="13" d="M 579.092,583.53 L 581.591,578.304"/><path data-line="15" d="M 274.67264157192767,679.2340384275795 A 51.299745257205345,51.299745257205345 0 0,0 278.2693793049384,730.536934114006"/><path data-line="16" d="M 274.693,679.244 L 276.203,676.543"/><path data-line="17" d="M 276.203,676.543 C 277.9234911376133,673.6959390918811 281.88726747387636,668.7568867861413 284.873,665.875"/><path data-line="18" d="M 284.873,665.875 L 287.42,663.637"/><path data-line="19" d="M 287.38737767983326,663.5965501536539 A 49.03895426447391,49.03895426447391 0 1,1 278.3901461125561,730.4421073512729"/><path data-line="20" d="M 1010.9308933580222,611.2027438802805 A 509.8064075735896,509.8064075735896 0 0,1 673.8593530930943,992.4768515878144"/><path data-line="22" d="M 359.4218092819857,995.4586518168703 A 508.0611643619172,508.0611643619172 0 0,1 3.8293857908763584,526.6479571000715"/><path data-line="23" d="M 4.211,526.636 L 16.091,396.963"/><path data-line="24" d="M 16.868447079875864,397.1363875545093 A 500.7007712307189,500.7007712307189 0 0,1 439.3974979421474,9.816163072228903"/></g></svg>