<?xml version="1.0" encoding="UTF-8" standalone="no"?><svg xmlns="http://www.w3.org/2000/svg" xmlns:xlink="http://www.w3.org/1999/xlink" contentScriptType="text/ecmascript" zoomAndPan="magnify" contentStyleType="text/css" version="1" width="1024" data-export-recolorable-svg="true" fill="#000000" preserveAspectRatio="xMidYMid meet" viewBox="261.213 -41 500.669 1105.95" height="1024" class="colorable-icon reset-top-left-margin" overflow="visible"><g fill="none" stroke-width="45" stroke-linejoin="round" stroke-linecap="round" stroke="url(&quot;#theme-accent-gradient-linear&quot;) rgb(90, 110, 216)"><path data-line="nan" d="M 593.907,4.0 C 648.12,42.448 664.975,57.694 679.67,74.393 C 694.316,96.448 704.628,117.9 711.736,139.652 C 716.601,165.604 718.111,191.666 715.861,217.707 C 709.895,243.964 701.907,265.596 690.073,287.586 C 680.867,300.923 673.881,309.495 657.245,326.172 L 635.318,343.745"/><path data-line="nan" d="M 635.318,343.745 C 617.959,356.87 606.163,368.195 599.858,376.753 C 593.79,389.739 591.498,398.369 590.059,411.263 L 590.444,467.595"/><path data-line="nan" d="M 604.559,926.989 C 603.438,940.085 600.536,953.204 595.568,966.447 L 587.917,979.786"/><path data-line="nan" d="M 434.51,414.119 C 433.139,400.898 429.545,387.454 425.438,378.482 C 419.54,369.851 407.349,357.795 372.721,331.09 C 359.662,319.662 347.823,306.759 335.221,289.467"/><path data-line="nan" d="M 593.816,165.959 C 593.46,174.644 591.974,182.821 587.564,194.062 C 583.509,200.054 577.154,206.483 572.702,209.717 C 565.17,213.498 556.243,216.514 540.828,218.442 C 491.469,219.159 471.512,218.196 460.134,215.161 C 450.064,209.726 441.049,201.822 435.87,194.035 C 432.322,184.684 430.509,175.608 429.261,142.844"/><path data-line="1" d="M 593.907,4.0 L 593.816,165.959"/><circle r="39.207" cx="512.594" data-line="7" cy="903.999"/><path data-line="8" d="M 534.334,936.87 L 540.275,933.472"/><path data-line="8" d="M 590.444,467.595 L 604.559,926.989"/><path data-line="10" d="M 588.0351783324495,979.8670099121036 A 92.22992996435376,92.22992996435376 0 0,1 420.3698681837749,916.8963924443207"/><path data-line="10" d="M 420.265,916.884 L 434.51,414.119"/><path data-line="12" d="M 334.7159174096025,289.77943622558985 A 190.57755115925056,190.57755115925056 0 0,1 430.39245410297895,10.885721374024314"/><path data-line="14" d="M 429.261,142.844 L 429.935,9.655"/></g></svg>