<?xml version="1.0" encoding="UTF-8" standalone="no"?><svg xmlns="http://www.w3.org/2000/svg" xmlns:xlink="http://www.w3.org/1999/xlink" contentScriptType="text/ecmascript" zoomAndPan="magnify" contentStyleType="text/css" version="1" width="1024" data-export-recolorable-svg="true" fill="#000000" preserveAspectRatio="xMidYMid meet" viewBox="-12.919 -40.992 1049.774 1105.965" height="1024" class="colorable-icon reset-top-left-margin" overflow="visible"><g fill="none" stroke-width="45" stroke-linejoin="round" stroke-linecap="round" stroke="#ffffff"><path data-line="nan" d="M 53.097,40.117 C 42.79,56.312 38.523,66.196 35.724,75.152 Q 32.662,92.382 32.081,114.818"/><path data-line="nan" d="M 410.501,160.906 C 398.61,157.879 389.101,157.362 296.438,159.381 C 202.3,159.582 187.711,160.64 177.781,164.125 C 172.934,167.366 168.578,171.652 165.236,176.453 C 162.907,181.523 161.518,186.493 160.387,196.304"/><path data-line="nan" d="M 161.258,384.314 C 162.46,398.953 165.362,409.049 171.494,419.032 C 175.902,423.425 180.702,426.902 190.669,431.0 C 200.634,432.271 225.422,432.643 383.95,431.479 C 393.782,431.132 403.992,429.598 414.6,425.108 C 419.45,421.444 427.04,412.026 431.492,401.364 L 433.459,386.037"/><path data-line="nan" d="M 433.408,212.578 C 432.633,197.683 431.02,187.801 427.061,177.422 L 418.603,163.836"/><path data-line="nan" d="M 32.094,917.471 C 32.518,930.25 34.419,943.114 37.206,953.553 C 41.543,964.279 46.937,974.283 53.67,983.938 C 62.416,993.407 69.92,999.74 80.118,1006.588 C 89.082,1011.067 99.807,1015.144 108.976,1017.477 Q 126.623,1019.794 166.306,1019.961"/><path data-line="nan" d="M 991.627,101.731 C 990.244,81.748 987.724,71.629 983.797,61.235 C 979.033,51.843 973.873,44.016 963.584,32.095 C 956.078,25.363 948.327,19.753 938.197,14.031 C 928.851,10.182 916.599,6.559 901.282,4.431 L 866.563,4.008"/><path data-line="nan" d="M 125.989,4.169 C 105.777,6.684 93.041,10.674 85.09,14.103 C 77.02,18.583 67.219,25.721 55.917,36.425 L 53.097,40.117"/><path data-line="0" d="M 220.246,756.185 L 853.232,756.198"/><path data-line="1" d="M 220.246,566.343 L 850.468,566.179"/><path data-line="5" d="M 410.501,160.906 L 418.603,163.836"/><path data-line="7" d="M 534.041,261.033 L 854.883,261.08"/><path data-line="8" d="M 289.817,355.96 L 369.539,244.961"/><path data-line="9" d="M 233.461,299.908 L 289.817,355.96"/><path data-line="10" d="M 32.081,114.818 L 32.094,917.471"/><path data-line="11" d="M 166.306,1019.961 L 882.399,1019.972"/><path data-line="12" d="M 882.4817895342378,1019.2802726439445 A 97.75626164802802,97.75626164802802 0 0,0 990.6285487609682,906.7795789336858"/><path data-line="12" d="M 160.387,196.304 L 161.258,384.314"/><path data-line="13" d="M 991.814,906.59 L 991.627,101.731"/><path data-line="14" d="M 433.459,386.037 L 433.408,212.578"/><path data-line="18" d="M 866.563,4.008 L 125.989,4.169"/></g></svg>