<?xml version="1.0" encoding="UTF-8" standalone="no"?><svg xmlns="http://www.w3.org/2000/svg" xmlns:xlink="http://www.w3.org/1999/xlink" contentScriptType="text/ecmascript" zoomAndPan="magnify" contentStyleType="text/css" version="1" width="1024" data-export-recolorable-svg="true" fill="#000000" preserveAspectRatio="xMidYMid meet" viewBox="-41.235 20.626 1106.218 982.719" height="1024" class="colorable-icon reset-top-left-margin" overflow="visible"><g fill="none" stroke-width="45" stroke-linejoin="round" stroke-linecap="round" stroke="url(&quot;#theme-accent-gradient-linear&quot;) rgb(90, 110, 216)"><path data-line="nan" d="M 977.019,426.503 C 999.719,452.342 1006.381,461.188 1014.371,476.699 C 1018.69,492.422 1019.938,513.087 1019.941,699.282"/><path data-line="nan" d="M 975.841,425.162 C 997.469,405.774 1005.102,397.319 1008.802,392.03 C 1014.529,380.881 1018.937,364.8 1019.983,333.753 L 1019.895,147.535"/><path data-line="nan" d="M 1019.941,699.282 C 1018.92,719.977 1014.631,735.946 1009.349,746.874 C 1005.843,752.237 1001.659,757.575 992.009,767.09 C 986.8,771.031 975.888,777.199 959.859,782.413 Q 944.463,783.985 913.427,784.178"/><path data-line="nan" d="M 4.063,509.271 C 4.262,496.296 5.838,486.623 9.977,474.335 C 15.222,463.924 20.565,456.235 27.249,448.61 L 52.016,424.901"/><path data-line="nan" d="M 1019.895,147.535 C 1018.915,126.858 1014.672,111.124 1009.261,100.298 C 1005.73,94.985 1001.814,90.029 992.752,81.266 C 987.681,77.574 977.161,71.929 961.515,67.187 Q 946.16,65.726 915.151,65.626"/><path data-line="nan" d="M 4.666,356.523 C 5.881,366.006 9.539,378.721 12.868,385.975 C 18.637,395.405 29.998,407.512 52.016,424.901"/><path data-line="0" d="M 974.454,426.405 L 52.016,424.901"/><path data-line="4" d="M 511.283,784.23 L 511.116,958.345"/><path data-line="5" d="M 225.523,958.316 L 796.569,957.893"/><circle r="44.144" cx="827.976" data-line="10" cy="250.132"/><path data-line="11" d="M 788.132,231.676 L 790.403,225.832"/><circle r="43.649" cx="829.199" data-line="13" cy="608.17"/><path data-line="14" d="M 787.927,624.025 L 789.795,630.095"/><path data-line="14" d="M 4.312,697.923 L 4.063,509.271"/><path data-line="16" d="M 913.427,784.178 L 77.603,784.664"/><path data-line="17" d="M 77.61161095097816,784.9424011267411 A 71.63170777033801,71.63170777033801 0 0,1 5.393886016312038,698.1577154772918"/><path data-line="17" d="M 4.571,152.353 L 4.666,356.523"/><path data-line="20" d="M 915.151,65.626 L 82.342,65.642"/><path data-line="21" d="M 82.25693813103547,66.26846301717865 A 69.15396156518023,69.15396156518023 0 0,0 5.971618252018473,151.99334169868"/></g></svg>