<?xml version="1.0" encoding="UTF-8" standalone="no"?><svg xmlns="http://www.w3.org/2000/svg" xmlns:xlink="http://www.w3.org/1999/xlink" contentScriptType="text/ecmascript" zoomAndPan="magnify" contentStyleType="text/css" version="1" width="1024" data-export-recolorable-svg="true" fill="#000000" preserveAspectRatio="xMidYMid meet" viewBox="72.182 -41 880.322 1106" height="1024" class="colorable-icon reset-top-left-margin" overflow="visible"><g fill="none" stroke-width="45" stroke-linejoin="round" stroke-linecap="round" stroke="#ffffff"><path data-line="nan" d="M 906.838,154.795 C 853.002,149.242 816.505,143.249 789.857,137.877 C 764.365,131.806 736.704,124.141 683.22,105.961 C 643.199,89.001 616.196,75.543 597.187,65.021 Q 564.936,43.622 511.031,4.0"/><path data-line="nan" d="M 906.838,154.795 C 907.508,173.088 907.986,286.267 906.675,337.891 L 904.817,376.281"/><path data-line="nan" d="M 898.26,443.732 C 892.195,486.465 883.971,527.551 873.581,567.37 C 860.359,608.244 842.336,652.373 822.72,692.82 C 805.875,723.217 785.157,755.966 760.357,790.56 C 731.444,826.34 704.938,855.9 664.635,896.648 C 637.325,921.807 605.804,948.393 540.138,998.964 L 511.624,1020.0"/><path data-line="nan" d="M 511.624,1020.0 C 432.018,958.354 400.594,932.756 364.716,900.99 C 328.344,865.573 294.93,829.073 265.701,793.177 Q 239.571,756.734 214.201,716.597"/><path data-line="nan" d="M 511.031,4.0 C 458.444,44.096 422.132,67.597 404.098,77.576 C 376.777,91.154 336.243,107.947 309.242,117.598 C 279.531,126.972 254.974,133.578 227.993,139.708 Q 178.413,148.322 117.182,154.304"/><path data-line="2" d="M 511.624,1020.0 L 511.031,4.0"/><path data-line="5" d="M 214.201,716.597 C 160.27703779289584,626.4416188310851 139.07701308430015,536.7652369591717 126.701,446.889"/><path data-line="5" d="M 904.817,376.281 L 898.26,443.732"/><path data-line="6" d="M 126.701,446.889 L 117.182,154.304"/></g></svg>