<?xml version="1.0" encoding="UTF-8" standalone="no"?><svg xmlns="http://www.w3.org/2000/svg" xmlns:xlink="http://www.w3.org/1999/xlink" contentScriptType="text/ecmascript" zoomAndPan="magnify" contentStyleType="text/css" version="1" width="1024" data-export-recolorable-svg="true" fill="#000000" preserveAspectRatio="xMidYMid meet" viewBox="-40.956 -12.214 1105.426 1047.474" height="1024" class="colorable-icon reset-top-left-margin" overflow="visible"><g fill="none" stroke-width="45" stroke-linejoin="round" stroke-linecap="round" stroke="#ffffff"><path data-line="nan" d="M 1019.47,873.165 C 1019.114,887.415 1017.741,898.422 1014.909,911.057 C 1010.158,924.565 1004.39,936.406 994.882,951.009 C 987.297,959.867 978.751,967.687 968.441,974.819 C 960.64,979.11 949.619,983.825 937.357,987.367 Q 918.482,989.955 877.574,990.204"/><path data-line="nan" d="M 121.293,990.26 C 106.742,989.998 95.153,988.723 82.688,985.677 C 69.824,981.124 57.541,974.773 43.657,964.928 C 35.825,957.892 26.699,947.556 20.301,938.066 C 15.627,929.229 9.915,914.315 7.012,902.923 Q 4.205,880.15 4.044,838.651"/><path data-line="0" d="M 1018.955,329.445 L 5.931,328.991"/><path data-line="1" d="M 1018.955,329.445 L 1019.47,873.165"/><path data-line="3" d="M 1018.955,329.445 L 902.164,93.107"/><path data-line="4" d="M 510.949,33.993 L 510.928,329.035"/><path data-line="6" d="M 877.574,990.204 L 121.293,990.26"/><path data-line="8" d="M 4.044,838.651 L 5.931,328.991"/><path data-line="9" d="M 902.164,93.107 C 881.0311362919689,41.25710504388516 824.9349398884186,28.921393545719514 787.058,33.75"/><path data-line="10" d="M 787.058,33.75 L 219.48,34.455"/><path data-line="11" d="M 219.48,34.455 C 171.81355049414057,24.017407122541222 118.68509915117366,77.31823147857793 103.274,126.854"/><path data-line="12" d="M 103.274,126.854 L 5.931,328.991"/></g></svg>